<svg width="1200" height="400" viewBox="0 0 1200 400" fill="none" xmlns="http://www.w3.org/2000/svg">
  <defs>
    <linearGradient id="bg" x1="0" y1="0" x2="1200" y2="400" gradientUnits="userSpaceOnUse">
      <stop stop-color="#07111F"/>
      <stop offset="0.5" stop-color="#0D1B2A"/>
      <stop offset="1" stop-color="#101828"/>
    </linearGradient>
    <linearGradient id="accent" x1="200" y1="60" x2="980" y2="340" gradientUnits="userSpaceOnUse">
      <stop stop-color="#7C3AED"/>
      <stop offset="0.45" stop-color="#0EA5E9"/>
      <stop offset="1" stop-color="#22C55E"/>
    </linearGradient>
    <linearGradient id="glow" x1="0" y1="0" x2="1" y2="1">
      <stop stop-color="#A78BFA"/>
      <stop offset="1" stop-color="#22D3EE"/>
    </linearGradient>
  </defs>

  <rect width="1200" height="400" rx="32" fill="url(#bg)"/>

  <circle cx="998" cy="106" r="160" fill="url(#accent)" opacity="0.18"/>
  <circle cx="1040" cy="318" r="220" fill="#22D3EE" opacity="0.08"/>
  <circle cx="180" cy="320" r="180" fill="#7C3AED" opacity="0.12"/>

  <path d="M76 56H1124" stroke="rgba(255,255,255,0.12)"/>
  <path d="M76 344H1124" stroke="rgba(255,255,255,0.12)"/>

  <g filter="url(#shadow)">
    <rect x="70" y="70" width="260" height="260" rx="52" fill="rgba(15, 23, 42, 0.8)" stroke="rgba(255,255,255,0.12)"/>
  </g>

  <g>
    <path d="M194 120C160 120 134 146 134 180V224C134 258 160 284 194 284H214C248 284 274 258 274 224V180C274 146 248 120 214 120H194Z" fill="url(#accent)" opacity="0.14"/>
    <path d="M182 132H220C248.72 132 272 155.28 272 184V224C272 252.72 248.72 276 220 276H182C153.28 276 130 252.72 130 224V184C130 155.28 153.28 132 182 132Z" fill="url(#accent)"/>
    <path d="M175 145H178C161.431 145 148 158.431 148 175V232C148 248.569 161.431 262 178 262H182V145H175Z" fill="#050B14" opacity="0.7"/>
    <path d="M224 145H228C244.569 145 258 158.431 258 175V232C258 248.569 244.569 262 228 262H224V145H224ZM210 145H158V262H210V145ZM196 145H162V262H196V145Z" fill="#050B14" opacity="0.7"/>
    <circle cx="236" cy="148" r="18" fill="#F8FAFC"/>
    <circle cx="236" cy="148" r="8" fill="#06B6D4"/>
  </g>

  <g>
    <text x="390" y="168" fill="#F8FAFC" font-family="Arial, Helvetica, sans-serif" font-size="76" font-weight="700" letter-spacing="1">UTKARSH RAJ</text>
    <text x="391" y="226" fill="#9CCAFB" font-family="Arial, Helvetica, sans-serif" font-size="34" font-weight="600" letter-spacing="4">SOFTWARE ENGINEER</text>
    <text x="392" y="280" fill="#C7D2FE" font-family="Arial, Helvetica, sans-serif" font-size="26" font-weight="500">Building .dot • Learning TypeScript &amp; System Design</text>
    <rect x="390" y="300" width="250" height="8" rx="4" fill="url(#glow)"/>
  </g>
</svg>
